<?xml version="1.0" encoding="UTF-8"?>
<!DOCTYPE svg PUBLIC "-//W3C//DTD SVG 1.1//EN" "http://www.w3.org/Graphics/SVG/1.1/DTD/svg11.dtd">
<svg xmlns="http://www.w3.org/2000/svg" version="1.1" width="71px" height="71px" style="shape-rendering:geometricPrecision; text-rendering:geometricPrecision; image-rendering:optimizeQuality; fill-rule:evenodd; clip-rule:evenodd" xmlns:xlink="http://www.w3.org/1999/xlink">
<g><path style="opacity:1" fill="#f9fafb" d="M -0.5,-0.5 C 3.83333,-0.5 8.16667,-0.5 12.5,-0.5C 11.5328,7.41438 11.1995,15.4144 11.5,23.5C 7.5,23.5 3.5,23.5 -0.5,23.5C -0.5,15.5 -0.5,7.5 -0.5,-0.5 Z"/></g>
<g><path style="opacity:1" fill="#315273" d="M 12.5,-0.5 C 22.8333,-0.5 33.1667,-0.5 43.5,-0.5C 44.3414,1.3792 44.6747,3.3792 44.5,5.5C 48.8333,5.16667 50.8333,7.16667 50.5,11.5C 52.2915,11.366 53.9582,11.6993 55.5,12.5C 55.5,16.1667 55.5,19.8333 55.5,23.5C 56.8333,23.5 58.1667,23.5 59.5,23.5C 60.4227,27.0641 60.756,30.7307 60.5,34.5C 64.162,34.0339 67.4954,34.7006 70.5,36.5C 70.5,37.1667 70.5,37.8333 70.5,38.5C 69.8826,38.6107 69.3826,38.944 69,39.5C 65.44,50.0221 61.6066,60.3554 57.5,70.5C 38.1667,70.5 18.8333,70.5 -0.5,70.5C -0.5,54.8333 -0.5,39.1667 -0.5,23.5C 3.5,23.5 7.5,23.5 11.5,23.5C 11.1995,15.4144 11.5328,7.41438 12.5,-0.5 Z"/></g>
<g><path style="opacity:1" fill="#fdfdfe" d="M 43.5,-0.5 C 52.5,-0.5 61.5,-0.5 70.5,-0.5C 70.5,11.8333 70.5,24.1667 70.5,36.5C 67.4954,34.7006 64.162,34.0339 60.5,34.5C 60.756,30.7307 60.4227,27.0641 59.5,23.5C 58.791,22.596 57.791,22.2627 56.5,22.5C 56.8128,18.9581 56.4794,15.6248 55.5,12.5C 53.9582,11.6993 52.2915,11.366 50.5,11.5C 50.8333,7.16667 48.8333,5.16667 44.5,5.5C 44.6747,3.3792 44.3414,1.3792 43.5,-0.5 Z"/></g>
<g><path style="opacity:1" fill="#edf0f2" d="M 13.5,2.5 C 22.8333,2.5 32.1667,2.5 41.5,2.5C 41.5,3.5 41.5,4.5 41.5,5.5C 33.5803,5.18496 25.747,5.51829 18,6.5C 17.5002,15.8274 17.3335,25.1607 17.5,34.5C 16.1667,34.5 14.8333,34.5 13.5,34.5C 13.5,23.8333 13.5,13.1667 13.5,2.5 Z"/></g>
<g><path style="opacity:1" fill="#eff2f4" d="M 47.5,8.5 C 47.5,9.5 47.5,10.5 47.5,11.5C 39.8261,11.3336 32.1594,11.5003 24.5,12C 23.5192,19.4129 23.1858,26.9129 23.5,34.5C 22.5,34.5 21.5,34.5 20.5,34.5C 20.5,25.8333 20.5,17.1667 20.5,8.5C 29.5,8.5 38.5,8.5 47.5,8.5 Z"/></g>
<g><path style="opacity:1" fill="#a4b4c2" d="M 47.5,8.5 C 38.5,8.5 29.5,8.5 20.5,8.5C 20.5,17.1667 20.5,25.8333 20.5,34.5C 19.5067,25.6822 19.1734,16.6822 19.5,7.5C 29.015,7.17311 38.3483,7.50644 47.5,8.5 Z"/></g>
<g><path style="opacity:1" fill="#ebeff2" d="M 53.5,34.5 C 51.2646,34.7947 49.2646,34.4614 47.5,33.5C 51.9793,27.718 51.3126,22.5513 45.5,18C 33.5588,14.6043 28.3922,19.1043 30,31.5C 30.7172,32.0442 31.2172,32.7109 31.5,33.5C 29.7354,34.4614 27.7354,34.7947 25.5,34.5C 25.5,27.5 25.5,20.5 25.5,13.5C 34.8333,13.5 44.1667,13.5 53.5,13.5C 53.5,20.5 53.5,27.5 53.5,34.5 Z"/></g>
<g><path style="opacity:1" fill="#a3b3c1" d="M 55.5,12.5 C 56.4794,15.6248 56.8128,18.9581 56.5,22.5C 57.791,22.2627 58.791,22.596 59.5,23.5C 58.1667,23.5 56.8333,23.5 55.5,23.5C 55.5,19.8333 55.5,16.1667 55.5,12.5 Z"/></g>
<g><path style="opacity:1" fill="#eceff2" d="M 36.5,18.5 C 46.256,18.3698 49.256,22.7032 45.5,31.5C 44.5853,30.6721 43.9186,29.6721 43.5,28.5C 45.3201,24.3079 43.9868,21.6412 39.5,20.5C 35.0132,21.6412 33.6799,24.3079 35.5,28.5C 35.0814,29.6721 34.4147,30.6721 33.5,31.5C 30.3299,26.1818 31.3299,21.8485 36.5,18.5 Z"/></g>
<g><path style="opacity:1" fill="#eaedf1" d="M 37.5,23.5 C 38.8333,23.5 40.1667,23.5 41.5,23.5C 41.5,24.8333 41.5,26.1667 41.5,27.5C 40.1667,27.5 38.8333,27.5 37.5,27.5C 37.5,26.1667 37.5,24.8333 37.5,23.5 Z"/></g>
<g><path style="opacity:1" fill="#f4f5f7" d="M 3.5,25.5 C 6.16667,25.5 8.83333,25.5 11.5,25.5C 11.5,28.8333 11.5,32.1667 11.5,35.5C 9.5328,35.7394 7.69946,35.4061 6,34.5C 4.85513,31.5682 4.0218,28.5682 3.5,25.5 Z"/></g>
<g><path style="opacity:1" fill="#bcc7d1" d="M 55.5,25.5 C 56.5,25.5 57.5,25.5 58.5,25.5C 58.5,28.5 58.5,31.5 58.5,34.5C 57.5,34.5 56.5,34.5 55.5,34.5C 55.5,31.5 55.5,28.5 55.5,25.5 Z"/></g>
<g><path style="opacity:1" fill="#f9fafb" d="M 37.5,30.5 C 40.9496,29.7564 42.6162,31.0897 42.5,34.5C 40.5,34.5 38.5,34.5 36.5,34.5C 36.4326,33.0413 36.7659,31.7079 37.5,30.5 Z"/></g>
<g><path style="opacity:1" fill="#f6f8f9" d="M 3.5,33.5 C 3.75115,35.1703 4.41782,36.6703 5.5,38C 7.31261,37.9536 8.97928,38.1203 10.5,38.5C 7.86572,45.427 5.53239,52.427 3.5,59.5C 2.16667,50.8333 2.16667,42.1667 3.5,33.5 Z"/></g>
<g><path style="opacity:1" fill="#71899f" d="M 31.5,33.5 C 32.0431,33.56 32.3764,33.8933 32.5,34.5C 30.0268,35.7969 27.6934,35.7969 25.5,34.5C 27.7354,34.7947 29.7354,34.4614 31.5,33.5 Z"/></g>
<g><path style="opacity:1" fill="#70889f" d="M 47.5,33.5 C 49.2646,34.4614 51.2646,34.7947 53.5,34.5C 51.3066,35.7969 48.9732,35.7969 46.5,34.5C 46.6236,33.8933 46.9569,33.56 47.5,33.5 Z"/></g>
<g><path style="opacity:1" fill="#4f6d88" d="M 3.5,33.5 C 2.16667,42.1667 2.16667,50.8333 3.5,59.5C 3.44001,60.0431 3.10667,60.3764 2.5,60.5C 1.16667,51.1667 1.16667,41.8333 2.5,32.5C 3.10667,32.6236 3.44001,32.9569 3.5,33.5 Z"/></g>
<g><path style="opacity:1" fill="#f9fafb" d="M 13.5,37.5 C 31.5031,37.3334 49.5031,37.5001 67.5,38C 63.8333,47.6667 60.1667,57.3333 56.5,67C 38.5,67.6667 20.5,67.6667 2.5,67C 6.26844,57.1935 9.93511,47.3602 13.5,37.5 Z"/></g>
<g><path style="opacity:1" fill="#f8f9fa" d="M 70.5,38.5 C 70.5,49.1667 70.5,59.8333 70.5,70.5C 66.1667,70.5 61.8333,70.5 57.5,70.5C 61.6066,60.3554 65.44,50.0221 69,39.5C 69.3826,38.944 69.8826,38.6107 70.5,38.5 Z"/></g>
<g><path style="opacity:1" fill="#2d4f71" d="M 24.5,39.5 C 29.6646,39.1619 31.8313,41.4953 31,46.5C 29.702,47.5596 28.5353,48.7263 27.5,50C 27.6448,50.772 27.9781,51.4387 28.5,52C 34.4908,52.4995 40.4908,52.6662 46.5,52.5C 46.7254,50.2841 45.8921,48.6174 44,47.5C 42.3672,41.3028 44.5339,38.9695 50.5,40.5C 51.6964,41.5594 52.363,42.8927 52.5,44.5C 49.9957,46.894 48.4957,49.894 48,53.5C 40.6667,54.8333 33.3333,54.8333 26,53.5C 25.3048,50.1814 24.1382,47.1814 22.5,44.5C 22.4365,42.4861 23.1032,40.8194 24.5,39.5 Z"/></g>
<g><path style="opacity:1" fill="#d9e0e5" d="M 25.5,41.5 C 28.0764,41.7218 28.9098,43.0551 28,45.5C 27,44.1667 26,44.1667 25,45.5C 24.4209,44.0715 24.5876,42.7382 25.5,41.5 Z"/></g>
<g><path style="opacity:1" fill="#dae0e6" d="M 46.5,41.5 C 49.0764,41.7218 49.9098,43.0551 49,45.5C 48,44.1667 47,44.1667 46,45.5C 45.4209,44.0715 45.5876,42.7382 46.5,41.5 Z"/></g>
</svg>
