<?xml version="1.0" encoding="UTF-8"?>
<!DOCTYPE svg PUBLIC "-//W3C//DTD SVG 1.1//EN" "http://www.w3.org/Graphics/SVG/1.1/DTD/svg11.dtd">
<svg xmlns="http://www.w3.org/2000/svg" version="1.1" width="75px" height="76px" style="shape-rendering:geometricPrecision; text-rendering:geometricPrecision; image-rendering:optimizeQuality; fill-rule:evenodd; clip-rule:evenodd" xmlns:xlink="http://www.w3.org/1999/xlink">
<g><path style="opacity:1" fill="#f8f9fa" d="M -0.5,-0.5 C 24.5,-0.5 49.5,-0.5 74.5,-0.5C 74.5,24.8333 74.5,50.1667 74.5,75.5C 69.1667,75.5 63.8333,75.5 58.5,75.5C 58.5,75.1667 58.5,74.8333 58.5,74.5C 59.4584,74.0472 60.2917,73.3805 61,72.5C 61.8275,68.1287 61.6609,63.7953 60.5,59.5C 59.8055,63.7127 59.1388,67.8794 58.5,72C 39.5932,72.8255 20.7599,72.6588 2,71.5C 1.33333,49.1667 1.33333,26.8333 2,4.5C 2.5,4 3,3.5 3.5,3C 21.8333,2.33333 40.1667,2.33333 58.5,3C 59.1481,9.11249 59.8147,15.2792 60.5,21.5C 61.6639,15.1928 61.8306,8.8595 61,2.5C 60.5,2 60,1.5 59.5,1C 40.1667,0.333333 20.8333,0.333333 1.5,1C 0.747561,1.67076 0.414228,2.5041 0.5,3.5C 0.166667,3.5 -0.166667,3.5 -0.5,3.5C -0.5,2.16667 -0.5,0.833333 -0.5,-0.5 Z"/></g>
<g><path style="opacity:1" fill="#2a4d6e" d="M 58.5,74.5 C 39.2571,74.8261 20.0904,74.4928 1,73.5C 0.500034,50.169 0.333367,26.8357 0.5,3.5C 0.414228,2.5041 0.747561,1.67076 1.5,1C 20.8333,0.333333 40.1667,0.333333 59.5,1C 60,1.5 60.5,2 61,2.5C 61.8306,8.8595 61.6639,15.1928 60.5,21.5C 59.8147,15.2792 59.1481,9.11249 58.5,3C 40.1667,2.33333 21.8333,2.33333 3.5,3C 3,3.5 2.5,4 2,4.5C 1.33333,26.8333 1.33333,49.1667 2,71.5C 20.7599,72.6588 39.5932,72.8255 58.5,72C 59.1388,67.8794 59.8055,63.7127 60.5,59.5C 61.6609,63.7953 61.8275,68.1287 61,72.5C 60.2917,73.3805 59.4584,74.0472 58.5,74.5 Z"/></g>
<g><path style="opacity:1" fill="#95a7b7" d="M -0.5,3.5 C -0.166667,3.5 0.166667,3.5 0.5,3.5C 0.333367,26.8357 0.500034,50.169 1,73.5C 20.0904,74.4928 39.2571,74.8261 58.5,74.5C 58.5,74.8333 58.5,75.1667 58.5,75.5C 38.8333,75.5 19.1667,75.5 -0.5,75.5C -0.5,51.5 -0.5,27.5 -0.5,3.5 Z"/></g>
<g><path style="opacity:1" fill="#2c4e70" d="M 26.5,8.5 C 39.9836,8.14441 45.1502,14.4777 42,27.5C 38.3449,34.0702 32.8449,36.2368 25.5,34C 18.0904,29.6799 15.9237,23.5132 19,15.5C 20.7424,12.2543 23.2424,9.92098 26.5,8.5 Z"/></g>
<g><path style="opacity:1" fill="#eff1f4" d="M 26.5,10.5 C 38.0573,10.0471 42.7239,15.3804 40.5,26.5C 38.1567,27.7253 36.3234,27.0586 35,24.5C 36.0406,21.4748 35.5406,18.6415 33.5,16C 27.3071,15.2029 24.8071,18.0363 26,24.5C 24.6766,27.0586 22.8433,27.7253 20.5,26.5C 18.0392,19.4315 20.0392,14.0982 26.5,10.5 Z"/></g>
<g><path style="opacity:1" fill="#e9edf0" d="M 28.5,17.5 C 33.1585,17.0146 34.4919,18.848 32.5,23C 27.7282,23.8104 26.3948,21.9771 28.5,17.5 Z"/></g>
<g><path style="opacity:1" fill="#2c4e70" d="M 66.5,18.5 C 72.3034,18.81 74.4701,21.81 73,27.5C 67,38.1667 61,48.8333 55,59.5C 51.4829,62.5015 47.6496,64.8349 43.5,66.5C 43.9167,62.1654 44.4167,57.8321 45,53.5C 51.6761,41.4711 58.8427,29.8045 66.5,18.5 Z"/></g>
<g><path style="opacity:1" fill="#edf0f3" d="M 65.5,21.5 C 71.4647,20.9281 73.1313,23.0948 70.5,28C 64.8738,28.2533 63.2071,26.0867 65.5,21.5 Z"/></g>
<g><path style="opacity:1" fill="#f3f5f7" d="M 26.5,26.5 C 30.9108,25.66 34.5775,26.8267 37.5,30C 32.8026,33.246 28.136,33.246 23.5,30C 24.7101,28.9609 25.7101,27.7942 26.5,26.5 Z"/></g>
<g><path style="opacity:1" fill="#f4f6f7" d="M 61.5,28.5 C 64.3865,28.6099 66.7198,29.7766 68.5,32C 64.1801,40.8306 59.0135,48.9973 53,56.5C 50.9423,55.8883 49.109,54.8883 47.5,53.5C 52.4322,45.301 57.0988,36.9677 61.5,28.5 Z"/></g>
<g><path style="opacity:1" fill="#5c7690" d="M 10.5,40.5 C 12.337,40.6395 12.6704,41.3061 11.5,42.5C 10.7025,42.0431 10.3691,41.3764 10.5,40.5 Z"/></g>
<g><path style="opacity:1" fill="#4a6885" d="M 16.5,40.5 C 24.1955,40.1692 31.8622,40.5025 39.5,41.5C 35.6667,41.8333 31.8333,42.1667 28,42.5C 23.771,42.4898 19.9377,41.8232 16.5,40.5 Z"/></g>
<g><path style="opacity:1" fill="#23486b" d="M 10.5,48.5 C 12.337,48.6395 12.6704,49.3061 11.5,50.5C 10.7025,50.0431 10.3691,49.3764 10.5,48.5 Z"/></g>
<g><path style="opacity:1" fill="#204669" d="M 16.5,48.5 C 24.1955,48.1692 31.8622,48.5025 39.5,49.5C 35.6667,49.8333 31.8333,50.1667 28,50.5C 23.771,50.4898 19.9377,49.8232 16.5,48.5 Z"/></g>
<g><path style="opacity:1" fill="#23486b" d="M 16.5,56.5 C 24.1955,56.1692 31.8622,56.5025 39.5,57.5C 35.6667,57.8333 31.8333,58.1667 28,58.5C 23.771,58.4898 19.9377,57.8232 16.5,56.5 Z"/></g>
<g><path style="opacity:1" fill="#335474" d="M 10.5,56.5 C 12.337,56.6395 12.6704,57.3061 11.5,58.5C 10.7025,58.0431 10.3691,57.3764 10.5,56.5 Z"/></g>
<g><path style="opacity:1" fill="#eff2f4" d="M 46.5,56.5 C 53.0002,57.8543 53.1669,59.8543 47,62.5C 46.5045,60.5273 46.3379,58.5273 46.5,56.5 Z"/></g>
<g><path style="opacity:1" fill="#4b6784" d="M 29.5,64.5 C 32.8984,64.1796 36.2317,64.513 39.5,65.5C 39.2907,66.086 38.9574,66.586 38.5,67C 35.8333,67.6667 33.1667,67.6667 30.5,67C 29.7476,66.3292 29.4142,65.4959 29.5,64.5 Z"/></g>
</svg>
