<?xml version="1.0" encoding="UTF-8"?>
<!DOCTYPE svg PUBLIC "-//W3C//DTD SVG 1.1//EN" "http://www.w3.org/Graphics/SVG/1.1/DTD/svg11.dtd">
<svg xmlns="http://www.w3.org/2000/svg" version="1.1" width="80px" height="76px" style="shape-rendering:geometricPrecision; text-rendering:geometricPrecision; image-rendering:optimizeQuality; fill-rule:evenodd; clip-rule:evenodd" xmlns:xlink="http://www.w3.org/1999/xlink">
<g><path style="opacity:1" fill="#f9fafb" d="M -0.5,-0.5 C 12.1667,-0.5 24.8333,-0.5 37.5,-0.5C 37.5,-0.166667 37.5,0.166667 37.5,0.5C 35.0092,0.828814 32.8425,1.82881 31,3.5C 30.3333,7.83333 30.3333,12.1667 31,16.5C 33.19,18.7828 33.8567,21.4495 33,24.5C 28.6471,26.2789 24.6471,28.6122 21,31.5C 20.1318,37.2833 20.2985,40.95 21.5,42.5C 25.9083,42.062 27.5749,44.062 26.5,48.5C 23.1359,47.8728 21.1359,49.2061 20.5,52.5C 22.4425,55.7792 24.7758,58.7792 27.5,61.5C 27.0604,65.3713 27.0604,69.038 27.5,72.5C 27.5,73.8333 28.1667,74.5 29.5,74.5C 29.5,74.8333 29.5,75.1667 29.5,75.5C 19.5,75.5 9.5,75.5 -0.5,75.5C -0.5,50.1667 -0.5,24.8333 -0.5,-0.5 Z"/></g>
<g><path style="opacity:1" fill="#fafbfb" d="M 37.5,0.5 C 37.5,0.166667 37.5,-0.166667 37.5,-0.5C 51.5,-0.5 65.5,-0.5 79.5,-0.5C 79.5,24.8333 79.5,50.1667 79.5,75.5C 62.8333,75.5 46.1667,75.5 29.5,75.5C 29.5,75.1667 29.5,74.8333 29.5,74.5C 32.9358,73.0335 36.4358,71.7002 40,70.5C 44.0475,72.2775 48.2142,73.6108 52.5,74.5C 52.2904,69.8023 52.1237,65.1356 52,60.5C 53.708,58.4565 55.708,56.7899 58,55.5C 60.6121,51.345 59.4454,49.1783 54.5,49C 53.1667,47 53.1667,45 54.5,43C 55.7494,42.2599 56.7494,42.4265 57.5,43.5C 57.281,44.675 57.6143,45.675 58.5,46.5C 59.8124,41.6819 59.8124,37.0152 58.5,32.5C 58.0472,31.5416 57.3805,30.7083 56.5,30C 52.9212,28.2941 49.4212,26.4608 46,24.5C 45.3333,22.8333 45.3333,21.1667 46,19.5C 49.7838,13.8956 50.4504,7.89564 48,1.5C 44.6064,0.544161 41.1064,0.210828 37.5,0.5 Z"/></g>
<g><path style="opacity:1" fill="#345475" d="M 37.5,0.5 C 41.1064,0.210828 44.6064,0.544161 48,1.5C 50.4504,7.89564 49.7838,13.8956 46,19.5C 45.3333,21.1667 45.3333,22.8333 46,24.5C 49.4212,26.4608 52.9212,28.2941 56.5,30C 57.3805,30.7083 58.0472,31.5416 58.5,32.5C 58.6716,33.4916 58.3382,34.1583 57.5,34.5C 57.4894,32.9826 56.8228,31.8159 55.5,31C 53.0639,30.0701 50.7305,28.9034 48.5,27.5C 45.2226,33.3047 40.5559,34.8047 34.5,32C 33.7476,31.3292 33.4142,30.4959 33.5,29.5C 32.5416,29.0472 31.7083,28.3805 31,27.5C 27.781,28.7933 24.781,30.4599 22,32.5C 21.3333,34.8333 21.3333,37.1667 22,39.5C 23.3561,40.3802 24.8561,40.7135 26.5,40.5C 26.3433,39.1266 26.51,37.7932 27,36.5C 27.4283,51.7649 30.9283,52.2649 37.5,38C 38.8333,37.3333 40.1667,37.3333 41.5,38C 47.9145,52.5078 51.4145,52.0078 52,36.5C 51.7815,40.6383 53.4482,41.9716 57,40.5C 57.4935,38.8659 57.6602,37.1992 57.5,35.5C 58.8333,38.1667 58.8333,40.8333 57.5,43.5C 56.7494,42.4265 55.7494,42.2599 54.5,43C 53.1667,45 53.1667,47 54.5,49C 59.4454,49.1783 60.6121,51.345 58,55.5C 55.708,56.7899 53.708,58.4565 52,60.5C 52.1237,65.1356 52.2904,69.8023 52.5,74.5C 48.2142,73.6108 44.0475,72.2775 40,70.5C 36.4358,71.7002 32.9358,73.0335 29.5,74.5C 28.1667,74.5 27.5,73.8333 27.5,72.5C 31.6667,71.7543 35.6667,70.421 39.5,68.5C 43.3333,70.421 47.3333,71.7543 51.5,72.5C 51.1564,68.7717 50.4898,65.1051 49.5,61.5C 52.1667,58.5 54.8333,55.5 57.5,52.5C 57.2907,51.914 56.9574,51.414 56.5,51C 52.63,50.8949 48.9634,50.0615 45.5,48.5C 43.9884,44.7991 41.9884,41.4658 39.5,38.5C 37.0116,41.4658 35.0116,44.7991 33.5,48.5C 29.9391,49.7607 26.2724,50.594 22.5,51C 22.0426,51.414 21.7093,51.914 21.5,52.5C 24.5939,55.5828 27.2606,58.9161 29.5,62.5C 28.8333,62.1667 28.1667,61.8333 27.5,61.5C 24.7758,58.7792 22.4425,55.7792 20.5,52.5C 21.1359,49.2061 23.1359,47.8728 26.5,48.5C 27.5749,44.062 25.9083,42.062 21.5,42.5C 20.2985,40.95 20.1318,37.2833 21,31.5C 24.6471,28.6122 28.6471,26.2789 33,24.5C 33.8567,21.4495 33.19,18.7828 31,16.5C 30.3333,12.1667 30.3333,7.83333 31,3.5C 32.8425,1.82881 35.0092,0.828814 37.5,0.5 Z"/></g>
<g><path style="opacity:1" fill="#f9fafb" d="M 35.5,2.5 C 39.1817,2.3347 42.8484,2.50137 46.5,3C 47.3802,4.35613 47.7135,5.85613 47.5,7.5C 43.7604,7.75921 40.0938,7.42588 36.5,6.5C 35.1667,7.5 33.8333,8.5 32.5,9.5C 31.3861,8.27704 31.2195,6.94371 32,5.5C 33.5185,4.83663 34.6851,3.83663 35.5,2.5 Z"/></g>
<g><path style="opacity:1" fill="#f7f8fa" d="M 36.5,8.5 C 40.0641,9.42266 43.7307,9.75599 47.5,9.5C 47.7591,19.0328 43.4258,22.1995 34.5,19C 32.9903,17.6487 31.9903,15.982 31.5,14C 32.7416,11.7277 34.4083,9.89438 36.5,8.5 Z"/></g>
<g><path style="opacity:1" fill="#f5f6f8" d="M 33.5,29.5 C 33.9916,23.8474 37.1582,21.1807 43,21.5C 47.4367,27.0307 46.27,30.364 39.5,31.5C 37.2857,31.3887 35.2857,30.722 33.5,29.5 Z"/></g>
<g><path style="opacity:1" fill="#f5f6f8" d="M 33.5,29.5 C 33.4142,30.4959 33.7476,31.3292 34.5,32C 40.5559,34.8047 45.2226,33.3047 48.5,27.5C 50.7305,28.9034 53.0639,30.0701 55.5,31C 56.8228,31.8159 57.4894,32.9826 57.5,34.5C 57.5,34.8333 57.5,35.1667 57.5,35.5C 57.6602,37.1992 57.4935,38.8659 57,40.5C 53.4482,41.9716 51.7815,40.6383 52,36.5C 51.4145,52.0078 47.9145,52.5078 41.5,38C 40.1667,37.3333 38.8333,37.3333 37.5,38C 30.9283,52.2649 27.4283,51.7649 27,36.5C 26.51,37.7932 26.3433,39.1266 26.5,40.5C 24.8561,40.7135 23.3561,40.3802 22,39.5C 21.3333,37.1667 21.3333,34.8333 22,32.5C 24.781,30.4599 27.781,28.7933 31,27.5C 31.7083,28.3805 32.5416,29.0472 33.5,29.5 Z"/></g>
<g><path style="opacity:1" fill="#98aaba" d="M 58.5,32.5 C 59.8124,37.0152 59.8124,41.6819 58.5,46.5C 57.6143,45.675 57.281,44.675 57.5,43.5C 58.8333,40.8333 58.8333,38.1667 57.5,35.5C 57.5,35.1667 57.5,34.8333 57.5,34.5C 58.3382,34.1583 58.6716,33.4916 58.5,32.5 Z"/></g>
<g><path style="opacity:1" fill="#f9fafb" d="M 27.5,72.5 C 28.0396,69.1353 28.7063,65.802 29.5,62.5C 27.2606,58.9161 24.5939,55.5828 21.5,52.5C 21.7093,51.914 22.0426,51.414 22.5,51C 26.2724,50.594 29.9391,49.7607 33.5,48.5C 35.0116,44.7991 37.0116,41.4658 39.5,38.5C 41.9884,41.4658 43.9884,44.7991 45.5,48.5C 48.9634,50.0615 52.63,50.8949 56.5,51C 56.9574,51.414 57.2907,51.914 57.5,52.5C 54.8333,55.5 52.1667,58.5 49.5,61.5C 50.4898,65.1051 51.1564,68.7717 51.5,72.5C 47.3333,71.7543 43.3333,70.421 39.5,68.5C 35.6667,70.421 31.6667,71.7543 27.5,72.5 Z"/></g>
<g><path style="opacity:1" fill="#355676" d="M 21.5,62.5 C 22.2389,62.369 22.9056,62.5357 23.5,63C 22.3333,64.1667 21.1667,65.3333 20,66.5C 19.7003,64.9343 20.2003,63.601 21.5,62.5 Z"/></g>
<g><path style="opacity:1" fill="#7388a0" d="M 27.5,61.5 C 28.1667,61.8333 28.8333,62.1667 29.5,62.5C 28.7063,65.802 28.0396,69.1353 27.5,72.5C 27.0604,69.038 27.0604,65.3713 27.5,61.5 Z"/></g>
<g><path style="opacity:1" fill="#375777" d="M 64.5,49.5 C 65.552,49.3505 66.552,49.5172 67.5,50C 68.627,51.7533 69.627,53.5866 70.5,55.5C 72.813,56.2733 75.1463,56.9399 77.5,57.5C 78.6139,58.723 78.7805,60.0563 78,61.5C 76.3149,63.0175 74.8149,64.6841 73.5,66.5C 74.7883,69.0335 74.7883,71.5335 73.5,74C 70.8355,73.5203 68.1688,72.687 65.5,71.5C 63.0559,73.0538 60.3892,74.0538 57.5,74.5C 57.665,71.1501 57.4983,67.8168 57,64.5C 55.7903,61.8009 56.4569,61.8009 59,64.5C 58.5618,67.1986 58.7284,69.8653 59.5,72.5C 61.6068,71.3632 63.7735,70.3632 66,69.5C 68.2265,70.3632 70.3932,71.3632 72.5,72.5C 72.8988,69.578 73.0655,66.578 73,63.5C 74.9717,62.6948 76.4717,61.3615 77.5,59.5C 74.7875,58.7719 72.1209,57.9385 69.5,57C 68.7109,54.6349 67.5442,52.4682 66,50.5C 63.6453,53.1304 63.1453,52.797 64.5,49.5 Z"/></g>
<g><path style="opacity:1" fill="#315273" d="M 11.5,49.5 C 12.552,49.3505 13.552,49.5172 14.5,50C 18.6308,57.5933 18.1308,58.0933 13,51.5C 11.581,53.3359 10.4143,55.3359 9.5,57.5C 1.12098,57.2872 -0.045682,59.6206 6,64.5C 6.711,66.8991 6.54433,69.2324 5.5,71.5C 6,71.8333 6.5,72.1667 7,72.5C 11.9862,69.8581 16.8196,70.1915 21.5,73.5C 20.8333,73.8333 20.1667,74.1667 19.5,74.5C 17.429,73.3825 15.2623,72.3825 13,71.5C 10.5237,73.4871 7.69035,74.4871 4.5,74.5C 6.93239,69.126 5.76572,64.7927 1,61.5C 0.50999,60.2068 0.343323,58.8734 0.5,57.5C 6.85747,58.3301 10.5241,55.6634 11.5,49.5 Z"/></g>
</svg>
